<?xml version="1.0" encoding="iso-8859-1"?>
<!-- Uploaded to: SVG Repo, www.svgrepo.com, Generator: SVG Repo Mixer Tools -->
<!DOCTYPE svg PUBLIC "-//W3C//DTD SVG 1.1//EN" "http://www.w3.org/Graphics/SVG/1.1/DTD/svg11.dtd">
<svg fill="#000000" height="800px" width="800px" version="1.1" id="Capa_1" xmlns="http://www.w3.org/2000/svg" xmlns:xlink="http://www.w3.org/1999/xlink" 
	 viewBox="0 0 297 297" xml:space="preserve">
<path d="M48.685,213.544c-4.614-14.763,9.518-43.747,22.194-69.098c18.638-37.276,22.399-74.287,18.004-92.9
	c-6.243-26.45-22.806-42.24-44.305-42.24C19.998,9.306,0,29.303,0,53.883c0,15.786,5.528,24.084,11.927,33.692
	c2.123,3.186,4.318,6.482,6.645,10.503c6.593,11.389,3.13,16.857-5.334,28.139C7.34,134.079,0,143.865,0,157.102
	c0,11.503,11.612,38.899,31.627,70.67v30.689c0,3.85,2.174,7.37,5.616,9.095c27.808,13.927,62.339,20.138,111.961,20.138
	c54.894,0,147.796-9.389,147.796-44.577c0-35.189-92.902-44.578-147.796-44.578C106.162,198.54,74.479,203.217,48.685,213.544z
	 M20.342,157.102c0-6.455,4.249-12.119,9.169-18.678c8.557-11.407,20.276-27.03,6.666-50.538c-2.648-4.574-5.13-8.301-7.32-11.589
	c-5.67-8.511-8.515-12.784-8.515-22.414c0-13.363,10.871-24.234,24.235-24.234c15.866,0,22.165,16.647,24.507,26.571
	c3.602,15.256-0.923,48.173-16.401,79.129c-8.491,16.981-16.735,33.47-21.432,48.6C23.807,169.969,20.342,160.783,20.342,157.102z
	 M51.97,234.223c5.282-2.331,10.875-4.379,16.843-6.156v30.099c-5.968-1.777-11.561-3.825-16.843-6.156V234.223z M89.155,262.917
	v-39.6c16.953-3.012,36.634-4.434,60.049-4.434c14.247,0,28.201,0.561,41.439,1.626v45.217c-13.238,1.065-27.192,1.626-41.439,1.626
	C125.789,267.351,106.109,265.929,89.155,262.917z M240.128,258.52c-8.836,2.034-18.649,3.735-29.142,5.09v-40.987
	c10.493,1.355,20.306,3.057,29.143,5.091c26.297,6.054,35.037,12.984,36.42,15.403C275.166,245.536,266.425,252.465,240.128,258.52z
	"/>
</svg>